<?xml version="1.0" encoding="UTF-8" standalone="no"?>
<svg
   version="1.0"
   width="70.830002mm"
   height="12.07mm"
   id="svg19"
   sodipodi:docname="img0.emf"
   xmlns:inkscape="http://www.inkscape.org/namespaces/inkscape"
   xmlns:sodipodi="http://sodipodi.sourceforge.net/DTD/sodipodi-0.dtd"
   xmlns="http://www.w3.org/2000/svg"
   xmlns:svg="http://www.w3.org/2000/svg">
  <sodipodi:namedview
     id="namedview21"
     pagecolor="#ffffff"
     bordercolor="#000000"
     borderopacity="0.25"
     inkscape:showpageshadow="2"
     inkscape:pageopacity="0.0"
     inkscape:pagecheckerboard="0"
     inkscape:deskcolor="#d1d1d1"
     inkscape:document-units="mm" />
  <defs
     id="defs3">
    <pattern
       id="EMFhbasepattern"
       patternUnits="userSpaceOnUse"
       width="6"
       height="6"
       x="0"
       y="0" />
  </defs>
  <path
     style="fill:none;stroke:#000000;stroke-width:1.0196524px;stroke-linecap:round;stroke-linejoin:round;stroke-miterlimit:10;stroke-dasharray:none;stroke-opacity:1;"
     d="  M 0,0   M 25.293923,8.0799454   L 24.264519,18.757016   M 24.264519,18.757016   L 24.264519,18.757016   M 24.264519,18.757016   L 24.264519,18.757016   M 24.264519,18.757016   L 24.264519,18.757016   M 24.264519,18.757016   L 24.264519,18.757016   M 24.264519,18.757016   L 24.264519,18.901301   M 24.264519,18.901301   L 24.264519,18.901301   M 24.264519,18.901301   L 24.264519,18.901301   M 24.264519,18.901301   L 24.264519,18.901301   M 24.264519,18.901301   L 24.264519,18.901301   M 24.264519,18.901301   L 24.264519,18.901301   M 24.264519,18.901301   L 24.264519,18.901301   M 24.264519,18.901301   L 24.264519,18.901301   M 24.264519,18.901301   L 24.264519,19.045586   M 24.264519,19.045586   L 24.264519,19.045586   M 24.264519,19.045586   L 24.264519,19.045586   M 24.264519,19.045586   L 24.264519,19.045586   M 24.264519,19.045586   L 24.264519,19.045586   M 24.264519,19.045586   L 24.264519,19.045586   M 24.264519,19.045586   L 24.264519,19.045586   M 24.264519,19.045586   L 24.264519,19.18987   M 24.264519,19.18987   L 24.264519,19.18987   M 24.264519,19.18987   L 24.264519,19.18987   M 24.264519,19.18987   L 24.264519,19.18987   M 24.264519,19.18987   L 24.264519,19.18987   M 24.264519,19.18987   L 24.264519,19.18987   M 24.264519,19.18987   L 24.264519,19.18987   M 24.264519,19.18987   L 24.264519,19.18987   M 24.264519,19.18987   L 24.264519,19.334155   M 24.264519,19.334155   L 24.264519,19.334155   M 24.264519,19.334155   L 24.264519,19.334155   M 24.264519,19.334155   L 24.264519,19.622725   M 24.264519,19.622725   L 24.264519,20.055579   M 24.264519,20.055579   L 24.411577,20.344148   M 24.411577,20.344148   L 24.411577,20.632718   M 24.411577,20.632718   L 24.558635,21.065572   M 24.558635,21.065572   L 24.558635,21.354142   M 24.558635,21.354142   L 24.705693,21.642711   M 24.705693,21.642711   L 24.85275,21.931281   M 24.85275,21.931281   L 24.999808,22.21985   M 24.999808,22.21985   L 25.146866,22.508419   M 25.146866,22.508419   L 25.293923,22.796989   M 25.293923,22.796989   L 25.588039,23.085558   M 25.588039,23.085558   L 25.735096,23.374128   M 25.735096,23.374128   L 26.029212,23.662697   M 26.029212,23.662697   L 26.176269,23.951267   M 26.176269,23.951267   L 26.470385,24.095552   M 26.470385,24.095552   L 26.7645,24.384121   M 26.7645,24.384121   L 27.058616,24.528406   M 27.058616,24.528406   L 27.352731,24.816975   M 27.352731,24.816975   L 27.646846,24.96126   M 27.646846,24.96126   L 27.940962,25.105545   M 27.940962,25.105545   L 28.235077,25.24983   M 28.235077,25.24983   L 28.529193,25.394114   M 28.529193,25.394114   L 28.823308,25.538399   M 28.823308,25.538399   L 29.117423,25.538399   M 29.117423,25.538399   L 29.558596,25.682684   M 29.558596,25.682684   L 29.852712,25.682684   M 29.852712,25.682684   L 30.146827,25.826968   M 30.146827,25.826968   L 30.588,25.826968   M 30.588,25.826968   L 30.882116,25.826968   M 30.882116,25.826968   L 254.26275,25.826968  "
     id="path5" />
  <text
     xml:space="preserve"
     style="font-size:10.062500px;font-style:normal;font-variant:normal;font-weight:500;font-stretch:Normal;line-height:125.000000%;letter-spacing:0px;word-spacing:0px;fill:#000000;fill-opacity:1;stroke:none;font-family:Arial;text-align:start;text-anchor:start;"
     transform="matrix(0.081938,-0.996637,0.996637,0.081938,12.205789,17.747023)"
     x="0.000000"
     y="9.109314"
     id="text11"><tspan
       sodipodi:role="line"
       x="0.000000"
       y="9.109314"
       id="tspan9"><tspan
         dx="0.000000"
         dy="0.000000"
         style="fill:#000000;font-size:10.062500px;font-style:normal;font-variant:normal;font-weight:500;font-stretch:Normal;font-family:Arial;"
         id="tspan7">28</tspan></tspan></text>
  <text
     xml:space="preserve"
     style="font-size:10.062500px;font-style:normal;font-variant:normal;font-weight:500;font-stretch:Normal;line-height:125.000000%;letter-spacing:0px;word-spacing:0px;fill:#000000;fill-opacity:1;stroke:none;font-family:Arial;text-align:start;text-anchor:start;"
     transform="matrix(1.000000,-0.000000,0.000000,1.000000,131.028405,26.981246)"
     x="0.000000"
     y="9.109314"
     id="text17"><tspan
       sodipodi:role="line"
       x="0.000000"
       y="9.109314"
       id="tspan15"><tspan
         dx="0.000000"
         dy="0.000000"
         style="fill:#000000;font-size:10.062500px;font-style:normal;font-variant:normal;font-weight:500;font-stretch:Normal;font-family:Arial;"
         id="tspan13">561</tspan></tspan></text>
</svg>
